<?xml version="1.0" standalone="no"?>
<!DOCTYPE svg PUBLIC "-//W3C//DTD SVG 20010904//EN"
 "http://www.w3.org/TR/2001/REC-SVG-20010904/DTD/svg10.dtd">
<svg version="1.0" xmlns="http://www.w3.org/2000/svg"
 width="310.000000pt" height="310.000000pt" viewBox="0 0 310.000000 310.000000"
 preserveAspectRatio="xMidYMid meet">
<metadata>
Created by potrace 1.14, written by Peter Selinger 2001-2017
</metadata>
<g transform="translate(0.000000,310.000000) scale(0.100000,-0.100000)"
fill="#000000" stroke="none">
<path d="M250 1581 l0 -701 140 0 140 0 0 140 0 140 168 1 c92 0 176 2 187 4
11 2 36 7 55 10 76 14 198 83 265 151 65 66 137 189 151 259 58 296 -84 554
-369 668 -48 19 -76 21 -394 25 l-343 3 0 -700z m686 387 c98 -52 155 -150
150 -258 -5 -106 -61 -194 -153 -240 -45 -23 -60 -25 -225 -28 l-178 -4 0 282
0 282 178 -4 c170 -3 179 -4 228 -30z"/>
<path d="M1409 2273 c-1 -11 -1 -189 0 -235 l1 -38 210 0 210 0 0 -377 c0
-208 0 -460 0 -560 l0 -183 140 0 140 0 0 560 0 560 210 0 210 0 0 140 0 140
-560 0 c-308 0 -560 -3 -561 -7z"/>
<path d="M2622 1127 c-139 -65 -123 -259 25 -308 131 -43 253 96 198 227 -35
85 -137 122 -223 81z"/>
</g>
</svg>
